<svg width="140" height="26" viewBox="0 0 140 26" fill="none" xmlns="http://www.w3.org/2000/svg">
<path d="M43.3639 8.35226H47.3515C47.2291 7.26613 46.9318 6.30263 46.4596 5.46175C45.9873 4.62088 45.3839 3.92016 44.6494 3.35958C43.9324 2.78147 43.1103 2.34351 42.1833 2.0457C41.2739 1.7479 40.3033 1.599 39.2714 1.599C37.8372 1.599 36.543 1.85301 35.3887 2.36103C34.2519 2.86906 33.29 3.56979 32.5029 4.46322C31.7158 5.35665 31.1125 6.40774 30.6928 7.61649C30.273 8.80773 30.0631 10.1041 30.0631 11.5056C30.0631 12.872 30.273 14.1507 30.6928 15.3421C31.1125 16.5157 31.7158 17.5406 32.5029 18.4164C33.29 19.2924 34.2519 19.9843 35.3887 20.4924C36.543 20.9829 37.8372 21.2282 39.2714 21.2282C40.4257 21.2282 41.4838 21.053 42.4457 20.7026C43.4077 20.3522 44.2471 19.8442 44.9643 19.1784C45.6813 18.5128 46.2584 17.707 46.6956 16.761C47.133 15.815 47.404 14.7551 47.509 13.5815H43.5213C43.3639 14.8428 42.9267 15.8588 42.2096 16.6297C41.5101 17.4004 40.5306 17.7858 39.2714 17.7858C38.3444 17.7858 37.5574 17.6106 36.9102 17.2603C36.2631 16.8924 35.7385 16.4106 35.3362 15.815C34.934 15.2194 34.6366 14.5537 34.4442 13.8179C34.2693 13.0646 34.1819 12.2939 34.1819 11.5056C34.1819 10.6822 34.2693 9.88505 34.4442 9.1143C34.6366 8.3435 34.934 7.66029 35.3362 7.06467C35.7385 6.45153 36.2631 5.96978 36.9102 5.61942C37.5574 5.25154 38.3444 5.0676 39.2714 5.0676C39.7786 5.0676 40.2595 5.15519 40.7142 5.33037C41.1865 5.48804 41.6062 5.71577 41.9735 6.01358C42.3408 6.31139 42.6469 6.66175 42.8917 7.06467C43.1365 7.45007 43.2939 7.87926 43.3639 8.35226ZM53.2336 14.0282C53.2336 13.4851 53.2861 12.9508 53.391 12.4252C53.4959 11.8997 53.6708 11.4355 53.9157 11.0325C54.178 10.6296 54.5191 10.3055 54.9388 10.0602C55.3585 9.79751 55.8832 9.66614 56.5129 9.66614C57.1425 9.66614 57.6672 9.79751 58.0869 10.0602C58.5242 10.3055 58.8652 10.6296 59.1101 11.0325C59.3724 11.4355 59.556 11.8997 59.661 12.4252C59.7659 12.9508 59.8184 13.4851 59.8184 14.0282C59.8184 14.5712 59.7659 15.1055 59.661 15.6311C59.556 16.1391 59.3724 16.6034 59.1101 17.0237C58.8652 17.4267 58.5242 17.7508 58.0869 17.9961C57.6672 18.2412 57.1425 18.3639 56.5129 18.3639C55.8832 18.3639 55.3585 18.2412 54.9388 17.9961C54.5191 17.7508 54.178 17.4267 53.9157 17.0237C53.6708 16.6034 53.4959 16.1391 53.391 15.6311C53.2861 15.1055 53.2336 14.5712 53.2336 14.0282ZM49.5083 14.0282C49.5083 15.1143 49.6745 16.0953 50.0068 16.9712C50.339 17.8471 50.8113 18.6004 51.4234 19.2311C52.0355 19.8442 52.7701 20.3172 53.627 20.6501C54.484 20.9829 55.4459 21.1493 56.5129 21.1493C57.5797 21.1493 58.5416 20.9829 59.3986 20.6501C60.2731 20.3172 61.0164 19.8442 61.6286 19.2311C62.2407 18.6004 62.7129 17.8471 63.0452 16.9712C63.3775 16.0953 63.5437 15.1143 63.5437 14.0282C63.5437 12.9421 63.3775 11.961 63.0452 11.0851C62.7129 10.1917 62.2407 9.43841 61.6286 8.82525C61.0164 8.19459 60.2731 7.71285 59.3986 7.38C58.5416 7.02963 57.5797 6.85446 56.5129 6.85446C55.4459 6.85446 54.484 7.02963 53.627 7.38C52.7701 7.71285 52.0355 8.19459 51.4234 8.82525C50.8113 9.43841 50.339 10.1917 50.0068 11.0851C49.6745 11.961 49.5083 12.9421 49.5083 14.0282ZM78.6895 20.8077V7.22233H74.9642V14.3435C74.9642 15.7274 74.7368 16.7259 74.2821 17.3391C73.8274 17.9347 73.0928 18.2325 72.0784 18.2325C71.1864 18.2325 70.5656 17.961 70.2158 17.4179C69.866 16.8574 69.6911 16.0164 69.6911 14.8953V7.22233H65.9658V15.5785C65.9658 16.4194 66.0358 17.1902 66.1757 17.8909C66.3331 18.5742 66.5954 19.161 66.9627 19.6515C67.3301 20.1245 67.8284 20.4924 68.4581 20.7551C69.1052 21.0179 69.9273 21.1493 70.9241 21.1493C71.7111 21.1493 72.4807 20.9742 73.2328 20.6238C73.9847 20.2734 74.597 19.704 75.0692 18.9157H75.1479V20.8077H78.6895ZM81.5168 7.22233V20.8077H85.2421V14.6851C85.2421 14.0719 85.3033 13.5026 85.4258 12.9771C85.5482 12.4515 85.7493 11.996 86.0292 11.6107C86.3265 11.2077 86.7112 10.8924 87.1835 10.6646C87.6557 10.4369 88.2329 10.3231 88.915 10.3231C89.1423 10.3231 89.3784 10.3406 89.6233 10.3756C89.8681 10.3932 90.078 10.4194 90.2529 10.4544V6.98584C89.9556 6.89825 89.6845 6.85446 89.4396 6.85446C88.9674 6.85446 88.5127 6.92452 88.0754 7.06467C87.6382 7.20481 87.2272 7.40627 86.8424 7.66905C86.4576 7.9143 86.1167 8.22087 85.8193 8.58875C85.522 8.93912 85.2859 9.32452 85.111 9.74496H85.0585V7.22233H81.5168ZM94.5992 16.3931H91.0576C91.0925 17.304 91.2936 18.066 91.661 18.6793C92.0457 19.2748 92.5267 19.7566 93.1038 20.1245C93.6985 20.4924 94.3718 20.7551 95.1239 20.9128C95.8759 21.0704 96.6454 21.1493 97.4325 21.1493C98.202 21.1493 98.9541 21.0704 99.6886 20.9128C100.441 20.7727 101.105 20.5187 101.682 20.1508C102.26 19.7828 102.723 19.3011 103.073 18.7055C103.441 18.0923 103.624 17.3391 103.624 16.4456C103.624 15.815 103.502 15.2894 103.256 14.869C103.011 14.431 102.688 14.0719 102.286 13.7916C101.884 13.4938 101.42 13.2574 100.895 13.0822C100.388 12.907 99.8635 12.7581 99.3214 12.6354C98.7967 12.5129 98.2807 12.399 97.7735 12.2939C97.2663 12.1888 96.8116 12.0749 96.4093 11.9522C96.0246 11.8121 95.7097 11.6369 95.465 11.4268C95.2201 11.2165 95.0976 10.9449 95.0976 10.6121C95.0976 10.3318 95.1676 10.1128 95.3075 9.95515C95.4474 9.77996 95.6136 9.64859 95.8059 9.56105C96.0158 9.4734 96.2433 9.42086 96.488 9.40331C96.7329 9.36831 96.9603 9.35079 97.1701 9.35079C97.8348 9.35079 98.412 9.48223 98.9016 9.74496C99.3913 9.99025 99.6624 10.472 99.7149 11.1902H103.256C103.187 10.3493 102.968 9.65732 102.601 9.1143C102.251 8.55372 101.805 8.10701 101.263 7.77416C100.721 7.44131 100.1 7.20481 99.4001 7.06467C98.718 6.92452 98.0097 6.85446 97.275 6.85446C96.5405 6.85446 95.8235 6.92452 95.1239 7.06467C94.4243 7.18729 93.7946 7.41504 93.235 7.74788C92.6753 8.0632 92.2206 8.50116 91.8708 9.06175C91.5385 9.62232 91.3723 10.3406 91.3723 11.2165C91.3723 11.8121 91.4948 12.3201 91.7396 12.7406C91.9845 13.1435 92.308 13.4851 92.7103 13.7654C93.1125 14.0282 93.5673 14.2471 94.0744 14.4223C94.5992 14.5799 95.1326 14.7201 95.6748 14.8428C97.004 15.123 98.0359 15.4033 98.7705 15.6836C99.5225 15.9639 99.8985 16.3844 99.8985 16.9449C99.8985 17.2778 99.8198 17.558 99.6624 17.7858C99.505 17.9961 99.3039 18.1712 99.059 18.3113C98.8316 18.434 98.5693 18.5303 98.272 18.6004C97.9922 18.653 97.7211 18.6793 97.4588 18.6793C97.0914 18.6793 96.7329 18.6354 96.3831 18.5479C96.0508 18.4602 95.7535 18.3289 95.4912 18.1537C95.2288 17.961 95.0102 17.7245 94.8353 17.4442C94.6778 17.1464 94.5992 16.796 94.5992 16.3931ZM114.934 12.5566H108.873C108.891 12.2939 108.944 11.996 109.031 11.6632C109.136 11.3304 109.302 11.015 109.529 10.7172C109.774 10.4194 110.089 10.1742 110.474 9.98142C110.876 9.77124 111.375 9.66614 111.969 9.66614C112.878 9.66614 113.552 9.91143 113.99 10.4019C114.444 10.8924 114.759 11.6107 114.934 12.5566ZM108.873 14.9216H118.659C118.729 13.8705 118.642 12.8631 118.397 11.8997C118.152 10.9362 117.75 10.0778 117.19 9.32452C116.648 8.57124 115.948 7.97562 115.091 7.53766C114.234 7.08219 113.229 6.85446 112.074 6.85446C111.042 6.85446 110.098 7.03839 109.241 7.40627C108.401 7.77416 107.676 8.28218 107.063 8.93036C106.451 9.56105 105.979 10.3142 105.647 11.1902C105.314 12.0661 105.148 13.0121 105.148 14.0282C105.148 15.0792 105.306 16.0427 105.621 16.9187C105.953 17.7946 106.416 18.5479 107.011 19.1784C107.605 19.8091 108.331 20.2997 109.188 20.6501C110.046 20.9829 111.007 21.1493 112.074 21.1493C113.613 21.1493 114.925 20.799 116.009 20.0982C117.094 19.3975 117.898 18.2325 118.423 16.6034H115.144C115.021 17.0237 114.688 17.4267 114.146 17.812C113.604 18.18 112.957 18.3639 112.205 18.3639C111.156 18.3639 110.352 18.0923 109.792 17.5493C109.232 17.0062 108.926 16.1304 108.873 14.9216ZM120.973 2.0457V20.8077H124.698V2.0457H120.973ZM134.322 22.4895L139.989 7.22233H136.132L133.168 16.5245H133.115L130.045 7.22233H126.085L130.833 19.9669C130.938 20.2296 130.989 20.5099 130.989 20.8077C130.989 21.2106 130.867 21.5785 130.622 21.9114C130.395 22.2442 130.037 22.4369 129.547 22.4895C129.179 22.5069 128.812 22.4982 128.445 22.4632C128.078 22.4281 127.72 22.3931 127.369 22.358V25.4325C127.755 25.4676 128.13 25.4939 128.498 25.5113C128.883 25.5464 129.267 25.5638 129.652 25.5638C130.928 25.5638 131.926 25.3274 132.643 24.8544C133.36 24.3815 133.919 23.5931 134.322 22.4895Z" fill="#333B4A"/>
<path d="M25.9559 11.4615L9.62685 22.2535V0.669525L25.9559 11.4615Z" fill="#017CFF"/>
<path d="M16.625 11.4615L0.295959 22.2535V0.669525L16.625 11.4615Z" fill="#E48D8B"/>
</svg>
